<svg width="48" height="48" viewBox="0 0 48 48" fill="none" xmlns="http://www.w3.org/2000/svg">
<path d="M42.9708 24.2909L24.9708 4.2909C24.2128 3.4469 22.7568 3.4469 21.9988 4.2909L3.99883 24.2909C3.73974 24.5781 3.56968 24.9344 3.50932 25.3164C3.44896 25.6985 3.5009 26.0898 3.65883 26.4429C3.97883 27.1649 4.69483 27.6289 5.48483 27.6289H9.48483V41.6289C9.48483 42.1593 9.69555 42.668 10.0706 43.0431C10.4457 43.4182 10.9544 43.6289 11.4848 43.6289H17.4848C18.0153 43.6289 18.524 43.4182 18.899 43.0431C19.2741 42.668 19.4848 42.1593 19.4848 41.6289V33.6289H27.4848V41.6289C27.4848 42.1593 27.6955 42.668 28.0706 43.0431C28.4457 43.4182 28.9544 43.6289 29.4848 43.6289H35.4848C36.0153 43.6289 36.524 43.4182 36.8991 43.0431C37.2741 42.668 37.4848 42.1593 37.4848 41.6289V27.6289H41.4848C41.8722 27.6305 42.2516 27.5195 42.5769 27.3092C42.9022 27.0989 43.1593 26.7985 43.3168 26.4447C43.4743 26.0908 43.5255 25.6988 43.4641 25.3163C43.4026 24.9339 43.2313 24.5776 42.9708 24.2909Z" fill="#cc1c00"/>
</svg>
