<svg width="308" height="290" viewBox="0 0 308 290" fill="none" xmlns="http://www.w3.org/2000/svg">
<circle cx="154" cy="145" r="145" fill="#5A6E5A"/>
<rect x="13" y="96" width="101" height="88" fill="black" fill-opacity="0.26"/>
<rect x="198" y="96" width="101" height="88" fill="black" fill-opacity="0.25"/>
<path d="M287.897 85.5246L278.877 86.58C278.877 86.58 253.877 87.1354 248.877 87.1354C243.877 87.1354 218.877 86.58 218.877 86.58C218.877 86.58 197 85.9446 193 85.5C189 85.0554 188 85 187 84.5C186 84 186 81.5 185.5 79C185 76.5 185.5 74 186 70.5C186.5 67 187.5 62.5 190 57.5C192.5 52.5 195 49 195 49C195 49 196 47.5 194.5 47.5C193 47.5 177 51.08 175.5 51.58C174 52.08 174 52.08 173.5 53.08C173 54.08 170 79.58 170 80.08C170 80.58 169 90.08 169.5 93.08C170 96.08 170.5 96.08 172 97.08C173.5 98.08 183.376 96.08 183.126 98.08C182.877 100.08 182.377 107.08 183.126 113.161C183.126 113.161 168.877 111.58 153.377 111.58C137.877 111.58 124.934 113.161 124.934 113.161C124.934 113.161 125.908 105.5 124.934 100C123.961 94.5 138.434 97.08 140.934 97.08C143.434 97.08 143.558 94.16 143.558 94.16C143.558 94.16 143.272 78.08 143.558 77.08C143.843 76.08 143.434 67.66 145.434 59.66C147.434 51.66 148.434 39.66 148.434 38.16C148.434 36.66 146.434 36.66 146.434 36.66L127.434 34.16C127.434 34.16 123.434 33.66 124.934 35.16C126.434 36.66 128.934 41.66 129.434 45.66C129.934 49.66 130.434 60.66 129.934 65.16C129.434 69.66 129.934 75.66 127.434 80.16C125.564 83.5265 123.125 83.1994 119.5 84.5C115.285 86.0125 101.5 85.5246 101.5 85.5246C101.5 85.5246 47.8768 86.58 33.2706 84.7607C18.6645 82.9414 13.8768 84.08 13.8768 84.08C10.9678 84.078 8.46697 85.7263 6.10792 87.4231C3.74887 89.1199 1.98643 91.5149 1.07118 94.2675C0.528458 95.6429 0.228336 97.1015 0.184067 98.5788L0.184069 155.08C0.184069 177.935 -3.26175 196.069 19.6646 196.069C19.6646 196.069 40.9413 194.58 53.3768 194.58C72.0708 194.58 99.3768 196.069 99.3768 196.069C122.303 196.069 124.934 197.264 124.934 174.409V129.08C124.934 129.08 139.877 126.58 153.377 126.58C166.877 126.58 183.126 129.08 183.126 129.08V174.409C183.126 193.08 188.377 196.069 201.377 196.069C201.377 196.069 241.5 194.5 250.5 194.5C259.5 194.5 287.897 196.069 287.897 196.069C310.823 196.069 307.877 177.47 307.877 154.615V99.3427C307.877 86.2715 300.384 85.5246 294.89 85.5246H287.897ZM110 170.08C110 170.08 110.5 179.08 104 179.08C104 179.08 74.0096 178.08 58.8768 178.08C43.744 178.08 26.5 179.08 26.5 179.08C18.8486 179.08 18 176.194 18 168.58C18 168.58 18 115.316 18 107.316C18 99.3161 24 100.316 24 100.316C24 100.316 56.8768 101.58 62.8768 101.58C68.8768 101.58 101.5 101.08 101.5 101.08C101.5 101.08 110 103.08 110 107.316C110 111.552 110 170.08 110 170.08ZM293.377 167.08C293.377 174.694 292.028 179.08 284.377 179.08C284.377 179.08 263.5 177 254.5 177C245.5 177 209.877 179.08 209.877 179.08C202.225 179.08 201.377 176.047 201.377 168.433C201.377 168.433 200.877 114.58 201.377 110.08C201.877 105.58 203.877 102.135 209.377 102.135C214.877 102.135 269.877 103.135 281.377 102.135C292.877 101.135 293.377 103.58 293.377 111.08C293.377 118.58 293.377 167.08 293.377 167.08Z" fill="#F5C265"/>
<path d="M56.528 234.336L82.96 248.48V239.776L66.384 230.88L82.96 221.984V213.28L56.528 227.424V234.336ZM102.172 236C102.172 235.616 102.364 225.76 111.132 225.76H120.156V246.24H111.132C102.364 246.24 102.172 236.448 102.172 236ZM111.132 252H127.836V204H120.156V220H111.132C94.492 220 94.492 236 94.492 236C94.492 236.256 94.556 252 111.132 252ZM154.445 225.76H155.917C161.037 225.76 163.149 225.952 163.469 231.2H145.485C145.741 225.888 147.917 225.76 153.613 225.76H154.445ZM137.805 236C137.805 251.616 144.397 252 155.405 252H168.269V246.24H155.405H153.997C148.173 246.24 145.805 246.048 145.485 239.84H171.149V236.192C171.149 220.448 164.493 220 154.445 220C144.397 220 137.805 220.448 137.805 236ZM215.293 220H207.037L198.141 241.824L189.373 220H181.117L193.981 252H202.365L215.293 220ZM252.398 234.336V227.424L225.966 213.28V221.984L242.478 230.88L225.966 239.776V248.48L252.398 234.336Z" fill="#D8D5C4"/>
</svg>
