<svg width="48" height="48" viewBox="0 0 48 48" fill="none" xmlns="http://www.w3.org/2000/svg">
<path d="M24 4C12.972 4 4 12.972 4 24C4 35.028 12.972 44 24 44C35.028 44 44 35.028 44 24C44 12.972 35.028 4 24 4ZM24 40C15.178 40 8 32.822 8 24C8 21.664 8.516 19.45 9.418 17.448C9.726 17.628 10.034 17.812 10.33 18C11.122 18.5 11.912 19 12.902 19.376C13.89 19.75 15.078 20 16.66 20C18.244 20 19.432 19.75 20.422 19.374C21.412 18.998 22.204 18.5 22.996 18C23.788 17.5 24.58 17 25.57 16.624C26.558 16.25 27.746 16 29.33 16C30.914 16 32.102 16.25 33.09 16.626C34.08 17 34.872 17.5 35.664 18C36.456 18.5 37.248 19 38.238 19.376C38.594 19.51 38.986 19.62 39.4 19.718C39.782 21.082 40 22.514 40 24C40 32.822 32.822 40 24 40Z" fill="#D8D5C4"/>
<path d="M17 28C18.6569 28 20 26.6569 20 25C20 23.3431 18.6569 22 17 22C15.3431 22 14 23.3431 14 25C14 26.6569 15.3431 28 17 28Z" fill="#D8D5C4"/>
<path d="M31 28C32.6569 28 34 26.6569 34 25C34 23.3431 32.6569 22 31 22C29.3431 22 28 23.3431 28 25C28 26.6569 29.3431 28 31 28Z" fill="#D8D5C4"/>
</svg>
