<svg width="374" height="372" viewBox="0 0 374 372" fill="none" xmlns="http://www.w3.org/2000/svg">
<g filter="url(#filter0_d)">
<g filter="url(#filter1_d)">
<circle cx="186" cy="182" r="182" fill="#1B0000"/>
<circle cx="186" cy="182" r="174.5" stroke="#761C00" stroke-width="15"/>
</g>
<g filter="url(#filter2_bi)">
<path d="M43 130H145V225H43V130Z" fill="#121211"/>
<path d="M226 130H328V225H226V130Z" fill="#121211"/>
</g>
<g filter="url(#filter3_d)">
<path d="M319.897 122.445L310.877 123.5C310.877 123.5 285.877 124.055 280.877 124.055C275.877 124.055 250.877 123.5 250.877 123.5C250.877 123.5 229 122.865 225 122.42C221 121.975 220 121.92 219 121.42C218 120.92 218 118.42 217.5 115.92C217 113.42 217.5 110.92 218 107.42C218.5 103.92 219.5 99.42 222 94.42C224.5 89.42 227 85.92 227 85.92C227 85.92 228 84.42 226.5 84.42C225 84.42 209 88 207.5 88.5C206 89 206 89 205.5 90C205 91 202 116.5 202 117C202 117.5 201 127 201.5 130C202 133 202.5 133 204 134C205.5 135 215.376 133 215.126 135C214.877 137 214.377 144 215.126 150.081C215.126 150.081 200.877 148.5 185.377 148.5C169.877 148.5 156.934 150.081 156.934 150.081C156.934 150.081 157.908 142.42 156.934 136.92C155.961 131.42 170.434 134 172.934 134C175.434 134 175.558 131.08 175.558 131.08C175.558 131.08 175.272 115 175.558 114C175.843 113 175.434 104.58 177.434 96.58C179.434 88.58 180.434 76.58 180.434 75.08C180.434 73.58 178.434 73.58 178.434 73.58L159.434 71.08C159.434 71.08 155.434 70.58 156.934 72.08C158.434 73.58 160.934 78.58 161.434 82.58C161.934 86.58 162.434 97.58 161.934 102.08C161.434 106.58 161.934 112.58 159.434 117.08C157.564 120.447 155.125 120.119 151.5 121.42C147.285 122.933 133.5 122.445 133.5 122.445C133.5 122.445 79.8768 123.5 65.2706 121.681C50.6645 119.861 45.8768 121 45.8768 121C42.9678 120.998 40.467 122.646 38.1079 124.343C35.7489 126.04 33.9864 128.435 33.0712 131.188C32.5285 132.563 32.2283 134.021 32.1841 135.499L32.1841 192C32.1841 214.855 28.7383 232.989 51.6646 232.989C51.6646 232.989 72.9413 231.5 85.3768 231.5C104.071 231.5 131.377 232.989 131.377 232.989C154.303 232.989 156.934 234.184 156.934 211.329V166C156.934 166 171.877 163.5 185.377 163.5C198.877 163.5 215.126 166 215.126 166V211.329C215.126 230 220.377 232.989 233.377 232.989C233.377 232.989 273.5 231.42 282.5 231.42C291.5 231.42 319.897 232.989 319.897 232.989C342.823 232.989 339.877 214.39 339.877 191.535V136.263C339.877 123.192 332.384 122.445 326.89 122.445H319.897ZM142 207C142 207 142.5 216 136 216C136 216 106.01 215 90.8768 215C75.744 215 58.5 216 58.5 216C50.8486 216 50 213.114 50 205.5C50 205.5 50 152.236 50 144.236C50 136.236 56 137.236 56 137.236C56 137.236 88.8768 138.5 94.8768 138.5C100.877 138.5 133.5 138 133.5 138C133.5 138 142 140 142 144.236C142 148.472 142 207 142 207ZM325.377 204C325.377 211.614 324.028 216 316.377 216C316.377 216 295.5 213.92 286.5 213.92C277.5 213.92 241.877 216 241.877 216C234.225 216 233.377 212.967 233.377 205.353C233.377 205.353 232.877 151.5 233.377 147C233.877 142.5 235.877 139.055 241.377 139.055C246.877 139.055 301.877 140.055 313.377 139.055C324.877 138.055 325.377 140.5 325.377 148C325.377 155.5 325.377 204 325.377 204Z" fill="#761C00"/>
</g>
</g>
<defs>
<filter id="filter0_d" x="2" y="0" width="372" height="372" filterUnits="userSpaceOnUse" color-interpolation-filters="sRGB">
<feFlood flood-opacity="0" result="BackgroundImageFix"/>
<feColorMatrix in="SourceAlpha" type="matrix" values="0 0 0 0 0 0 0 0 0 0 0 0 0 0 0 0 0 0 127 0" result="hardAlpha"/>
<feOffset dx="2" dy="4"/>
<feGaussianBlur stdDeviation="2"/>
<feComposite in2="hardAlpha" operator="out"/>
<feColorMatrix type="matrix" values="0 0 0 0 0 0 0 0 0 0 0 0 0 0 0 0 0 0 0.25 0"/>
<feBlend mode="normal" in2="BackgroundImageFix" result="effect1_dropShadow"/>
<feBlend mode="normal" in="SourceGraphic" in2="effect1_dropShadow" result="shape"/>
</filter>
<filter id="filter1_d" x="0" y="0" width="372" height="372" filterUnits="userSpaceOnUse" color-interpolation-filters="sRGB">
<feFlood flood-opacity="0" result="BackgroundImageFix"/>
<feColorMatrix in="SourceAlpha" type="matrix" values="0 0 0 0 0 0 0 0 0 0 0 0 0 0 0 0 0 0 127 0" result="hardAlpha"/>
<feOffset dy="4"/>
<feGaussianBlur stdDeviation="2"/>
<feComposite in2="hardAlpha" operator="out"/>
<feColorMatrix type="matrix" values="0 0 0 0 0 0 0 0 0 0 0 0 0 0 0 0 0 0 0.45 0"/>
<feBlend mode="normal" in2="BackgroundImageFix" result="effect1_dropShadow"/>
<feBlend mode="normal" in="SourceGraphic" in2="effect1_dropShadow" result="shape"/>
</filter>
<filter id="filter2_bi" x="35" y="122" width="301" height="111" filterUnits="userSpaceOnUse" color-interpolation-filters="sRGB">
<feFlood flood-opacity="0" result="BackgroundImageFix"/>
<feGaussianBlur in="BackgroundImage" stdDeviation="4"/>
<feComposite in2="SourceAlpha" operator="in" result="effect1_backgroundBlur"/>
<feBlend mode="normal" in="SourceGraphic" in2="effect1_backgroundBlur" result="shape"/>
<feColorMatrix in="SourceAlpha" type="matrix" values="0 0 0 0 0 0 0 0 0 0 0 0 0 0 0 0 0 0 127 0" result="hardAlpha"/>
<feOffset dy="4"/>
<feGaussianBlur stdDeviation="2"/>
<feComposite in2="hardAlpha" operator="arithmetic" k2="-1" k3="1"/>
<feColorMatrix type="matrix" values="0 0 0 0 0 0 0 0 0 0 0 0 0 0 0 0 0 0 0.75 0"/>
<feBlend mode="normal" in2="shape" result="effect2_innerShadow"/>
</filter>
<filter id="filter3_d" x="28" y="71" width="316" height="170" filterUnits="userSpaceOnUse" color-interpolation-filters="sRGB">
<feFlood flood-opacity="0" result="BackgroundImageFix"/>
<feColorMatrix in="SourceAlpha" type="matrix" values="0 0 0 0 0 0 0 0 0 0 0 0 0 0 0 0 0 0 127 0" result="hardAlpha"/>
<feOffset dy="4"/>
<feGaussianBlur stdDeviation="2"/>
<feComposite in2="hardAlpha" operator="out"/>
<feColorMatrix type="matrix" values="0 0 0 0 0 0 0 0 0 0 0 0 0 0 0 0 0 0 0.65 0"/>
<feBlend mode="normal" in2="BackgroundImageFix" result="effect1_dropShadow"/>
<feBlend mode="normal" in="SourceGraphic" in2="effect1_dropShadow" result="shape"/>
</filter>
</defs>
</svg>
